<?xml version="1.0" encoding="UTF-8" standalone="no"?> <svg xmlns="http://www.w3.org/2000/svg" width="15.5" height="15.5" viewBox="0 0 15.5 15.5">
  <path id="face-grin-emoji" d="M7.75,8a7.75,7.75,0,1,0,7.75,7.75A7.749,7.749,0,0,0,7.75,8Zm0,14A6.25,6.25,0,1,1,14,15.75,6.256,6.256,0,0,1,7.75,22Zm3.3-4.731a11.6,11.6,0,0,1-3.3.409,11.614,11.614,0,0,1-3.3-.409.429.429,0,0,0-.553.478c.247,1.472,2.228,2.5,3.853,2.5s3.6-1.028,3.853-2.5a.43.43,0,0,0-.553-.478ZM5.25,15.25a1,1,0,1,0-1-1A1,1,0,0,0,5.25,15.25Zm5,0a1,1,0,1,0-1-1A1,1,0,0,0,10.25,15.25Z" transform="translate(0 -8)"/>
</svg>
